<svg width="12" height="337" viewBox="0 0 12 337" fill="none" xmlns="http://www.w3.org/2000/svg">
<path d="M0.440104 5.33337C0.440104 8.27889 2.82792 10.6667 5.77344 10.6667C8.71896 10.6667 11.1068 8.27889 11.1068 5.33337C11.1068 2.38786 8.71896 4.06599e-05 5.77344 4.05312e-05C2.82792 4.04024e-05 0.440104 2.38786 0.440104 5.33337ZM4.77343 125.333C4.77343 125.886 5.22115 126.333 5.77343 126.333C6.32572 126.333 6.77343 125.886 6.77343 125.333L5.77343 125.333L4.77343 125.333ZM5.77344 5.33337L4.77344 5.33337L4.77343 125.333L5.77343 125.333L6.77343 125.333L6.77344 5.33337L5.77344 5.33337Z" fill="#C0DBF7"/>
<path d="M6.77344 206.333C6.77344 205.781 6.32572 205.333 5.77344 205.333C5.22115 205.333 4.77344 205.781 4.77344 206.333L5.77344 206.333L6.77344 206.333ZM5.77344 336.333L11.5469 326.333L-6.00813e-05 326.333L5.77344 336.333ZM5.77344 206.333L4.77344 206.333L4.77344 327.333L5.77344 327.333L6.77344 327.333L6.77344 206.333L5.77344 206.333Z" fill="#C0DBF7"/>
</svg>
