<svg width="48" height="48" viewBox="0 0 48 48" fill="none" xmlns="http://www.w3.org/2000/svg">
<path opacity="0.4" d="M22.02 40.04C31.9722 40.04 40.04 31.9722 40.04 22.02C40.04 12.0678 31.9722 4 22.02 4C12.0678 4 4 12.0678 4 22.02C4 31.9722 12.0678 40.04 22.02 40.04Z" fill="#2E77E5"/>
<path d="M43.9801 37.9C43.3201 36.68 41.9201 36 40.0401 36C38.6201 36 37.4001 36.58 36.6801 37.58C35.9601 38.58 35.8001 39.92 36.2401 41.26C37.1001 43.86 38.6001 44.44 39.4201 44.54C39.5401 44.56 39.6601 44.56 39.8001 44.56C40.6801 44.56 42.0401 44.18 43.3601 42.2C44.4201 40.66 44.6201 39.12 43.9801 37.9Z" fill="#2E77E5"/>
</svg>
