<svg width="48" height="48" viewBox="0 0 48 48" fill="none" xmlns="http://www.w3.org/2000/svg">
<path opacity="0.4" d="M24 44C35.0457 44 44 35.0457 44 24C44 12.9543 35.0457 4 24 4C12.9543 4 4 12.9543 4 24C4 35.0457 12.9543 44 24 44Z" fill="#2E77E5"/>
<path d="M21.16 31.16C20.76 31.16 20.38 31 20.1 30.72L14.44 25.06C13.86 24.48 13.86 23.52 14.44 22.94C15.02 22.36 15.98 22.36 16.56 22.94L21.16 27.54L31.44 17.26C32.02 16.68 32.98 16.68 33.56 17.26C34.14 17.84 34.14 18.8 33.56 19.38L22.22 30.72C21.94 31 21.56 31.16 21.16 31.16Z" fill="#2E77E5"/>
</svg>
