<svg width="160" height="154" viewBox="0 0 160 154" fill="none" xmlns="http://www.w3.org/2000/svg">
<path d="M36.5897 137.116C26.2477 129.347 17.1197 120.931 10.5207 110.028C4.17174 99.5364 0.680741 88.1604 0.227741 75.9864C-0.149259 65.8614 0.150745 55.7114 0.150745 45.4944C4.21175 43.9974 7.67775 45.8084 11.1447 46.4264C18.1827 47.6824 25.1107 49.5654 32.1517 50.8034C35.7177 51.4294 36.7247 53.1484 36.7887 56.5354C36.9387 64.5094 36.1047 72.5004 37.6487 80.4594C40.2997 94.1244 49.2407 102.075 61.2947 107.423C63.5227 108.411 65.0937 107.572 66.7117 106.188C89.8787 86.3824 113.375 66.9414 136.052 46.5904C143.257 40.1244 150.55 40.9694 159.032 41.0584C157.653 45.7824 154.917 48.9854 152.723 52.4064C133.237 82.7864 110.972 110.977 85.5667 136.632C80.4207 141.828 74.5837 146.337 69.3707 151.472C66.3777 154.42 63.9217 154.06 60.5827 152.161C52.4667 147.545 44.3577 142.949 36.5897 137.116Z" fill="url(#paint0_linear_2_67)"/>
<path d="M21.4498 0.0922713C62.0998 0.0832713 102.25 0.0762725 142.4 0.0622725C149.806 0.0602725 149.949 0.222272 148.433 7.25827C148.118 8.72127 147.73 10.1793 147.555 11.6603C145.178 31.7573 133.947 33.9953 118.009 37.4323C111.483 38.8393 104.741 38.3943 98.0898 38.3673C94.8848 38.3543 93.5978 39.4903 93.6588 42.7373C93.7848 49.5653 93.5778 56.3993 93.6998 63.2273C93.7528 66.1883 92.7558 68.2163 90.2678 69.8923C84.8828 73.5203 79.5738 77.2753 74.4068 81.2053C72.0228 83.0183 69.9638 83.1673 67.6568 81.4053C67.5258 81.3043 67.3758 81.2273 67.2328 81.1423C53.4848 72.9843 53.4848 72.9843 53.4378 56.8623C53.4248 52.3643 53.2758 47.8613 53.4348 43.3703C53.5618 39.7823 52.2318 38.4573 48.5198 38.3243C35.7258 37.8653 22.9438 37.0613 10.1598 36.3613C8.33278 36.2613 6.51578 35.8773 4.69178 35.8533C1.05878 35.8043 -0.0842357 34.0593 0.00476429 30.5033C0.219764 22.0123 0.188775 13.5103 0.0277745 5.01727C-0.0412255 1.38427 1.25677 -0.126728 4.95777 0.00827167C10.2828 0.204272 15.6188 0.0792713 21.4498 0.0922713Z" fill="#0A1A2F"/>
<defs>
<linearGradient id="paint0_linear_2_67" x1="0.0375977" y1="97.3059" x2="159.032" y2="97.3059" gradientUnits="userSpaceOnUse">
<stop offset="0.576923" stop-color="#2F80ED"/>
<stop offset="0.860577" stop-color="#2BB5A8"/>
<stop offset="1" stop-color="#27AE60"/>
</linearGradient>
</defs>
</svg>
