<svg width="616" height="164" viewBox="0 0 616 164" fill="none" xmlns="http://www.w3.org/2000/svg">
<path d="M36.5897 146.91C26.2477 139.141 17.1197 130.725 10.5207 119.822C4.17174 109.33 0.680741 97.9539 0.227741 85.7799C-0.149259 75.6549 0.150745 65.5049 0.150745 55.2879C4.21175 53.7909 7.67775 55.6019 11.1447 56.2199C18.1827 57.4759 25.1107 59.3589 32.1517 60.5969C35.7177 61.2229 36.7247 62.9419 36.7887 66.3289C36.9387 74.3029 36.1047 82.2939 37.6487 90.2529C40.2997 103.918 49.2407 111.869 61.2947 117.217C63.5227 118.205 65.0937 117.366 66.7117 115.982C89.8787 96.1759 113.375 76.7349 136.052 56.3839C143.257 49.9179 150.55 50.7629 159.032 50.8519C157.653 55.5759 154.917 58.7789 152.723 62.1999C133.237 92.5799 110.972 120.771 85.5667 146.426C80.4207 151.622 74.5837 156.131 69.3707 161.266C66.3777 164.214 63.9217 163.854 60.5827 161.955C52.4667 157.339 44.3577 152.743 36.5897 146.91Z" fill="url(#paint0_linear_10_2_white)"/>
<path d="M21.4498 9.88597C62.0998 9.87697 102.25 9.86997 142.4 9.85597C149.806 9.85397 149.949 10.016 148.433 17.052C148.118 18.515 147.73 19.973 147.555 21.454C145.178 41.551 133.947 43.789 118.009 47.226C111.483 48.633 104.741 48.188 98.0898 48.161C94.8848 48.148 93.5978 49.284 93.6588 52.531C93.7848 59.359 93.5778 66.193 93.6998 73.021C93.7528 75.982 92.7558 78.01 90.2678 79.686C84.8828 83.314 79.5738 87.069 74.4068 90.999C72.0228 92.812 69.9638 92.961 67.6568 91.199C67.5258 91.098 67.3758 91.021 67.2328 90.936C53.4848 82.778 53.4848 82.778 53.4378 66.656C53.4248 62.158 53.2758 57.655 53.4348 53.164C53.5618 49.576 52.2318 48.251 48.5198 48.118C35.7258 47.659 22.9438 46.855 10.1598 46.155C8.33278 46.055 6.51578 45.671 4.69178 45.647C1.05878 45.598 -0.0842357 43.853 0.00476429 40.297C0.219764 31.806 0.188775 23.304 0.0277745 14.811C-0.0412255 11.178 1.25677 9.66697 4.95777 9.80197C10.2828 9.99797 15.6188 9.87297 21.4498 9.88597Z" fill="#ffffff"/>
<path d="M203.15 107V47.7H180.45V35H239.45V47.7H216.75V107H203.15ZM242.504 107V53H254.504V66.2L253.204 64.5C253.904 62.6333 254.838 60.9333 256.004 59.4C257.171 57.8667 258.604 56.6 260.304 55.6C261.604 54.8 263.021 54.1833 264.554 53.75C266.088 53.2833 267.671 53 269.304 52.9C270.938 52.7667 272.571 52.8 274.204 53V65.7C272.704 65.2333 270.954 65.0833 268.954 65.25C266.988 65.3833 265.204 65.8333 263.604 66.6C262.004 67.3333 260.654 68.3167 259.554 69.55C258.454 70.75 257.621 72.1833 257.054 73.85C256.488 75.4833 256.204 77.3333 256.204 79.4V107H242.504ZM303.815 108.6C299.582 108.6 296.132 107.883 293.465 106.45C290.799 105.017 288.715 103.2 287.215 101C285.749 98.8 284.699 96.5167 284.065 94.15C283.432 91.75 283.049 89.5667 282.915 87.6C282.782 85.6333 282.715 84.2 282.715 83.3V53H296.515V78.5C296.515 79.7333 296.582 81.3167 296.715 83.25C296.849 85.15 297.265 87.0667 297.965 89C298.665 90.9333 299.799 92.55 301.365 93.85C302.965 95.15 305.215 95.8 308.115 95.8C309.282 95.8 310.532 95.6167 311.865 95.25C313.199 94.8833 314.449 94.1833 315.615 93.15C316.782 92.0833 317.732 90.5333 318.465 88.5C319.232 86.4333 319.615 83.7333 319.615 80.4L327.415 84.1C327.415 88.3667 326.549 92.3667 324.815 96.1C323.082 99.8333 320.465 102.85 316.965 105.15C313.499 107.45 309.115 108.6 303.815 108.6ZM321.315 107V89.1H319.615V53H333.315V107H321.315ZM368.39 108.5C361.59 108.5 356.09 106.967 351.89 103.9C347.723 100.8 345.19 96.4333 344.29 90.8L358.19 88.7C358.756 91.2333 360.006 93.2167 361.94 94.65C363.906 96.0833 366.39 96.8 369.39 96.8C371.856 96.8 373.756 96.3333 375.09 95.4C376.423 94.4333 377.09 93.1 377.09 91.4C377.09 90.3333 376.823 89.4833 376.29 88.85C375.756 88.1833 374.556 87.5333 372.69 86.9C370.856 86.2667 367.99 85.4333 364.09 84.4C359.69 83.2667 356.173 82 353.54 80.6C350.906 79.2 349.006 77.5333 347.84 75.6C346.673 73.6333 346.09 71.2667 346.09 68.5C346.09 65.0333 346.973 62.0333 348.74 59.5C350.506 56.9333 352.99 54.9667 356.19 53.6C359.423 52.2 363.223 51.5 367.59 51.5C371.823 51.5 375.573 52.15 378.84 53.45C382.106 54.75 384.74 56.6 386.74 59C388.773 61.4 390.023 64.2333 390.49 67.5L376.59 70C376.356 68 375.49 66.4167 373.99 65.25C372.49 64.0833 370.456 63.4 367.89 63.2C365.39 63.0333 363.373 63.3667 361.84 64.2C360.34 65.0333 359.59 66.2333 359.59 67.8C359.59 68.7333 359.906 69.5167 360.54 70.15C361.206 70.7833 362.556 71.4333 364.59 72.1C366.656 72.7667 369.79 73.6333 373.99 74.7C378.09 75.7667 381.373 77.0167 383.84 78.45C386.34 79.85 388.156 81.55 389.29 83.55C390.423 85.5167 390.99 87.9 390.99 90.7C390.99 96.2333 388.99 100.583 384.99 103.75C380.99 106.917 375.456 108.5 368.39 108.5ZM434.377 107C430.644 107.7 426.977 108 423.377 107.9C419.81 107.833 416.61 107.217 413.777 106.05C410.977 104.85 408.844 102.933 407.377 100.3C406.044 97.8333 405.344 95.3333 405.277 92.8C405.21 90.2333 405.177 87.3333 405.177 84.1V38H418.777V83.3C418.777 85.4 418.794 87.3 418.827 89C418.894 90.6667 419.244 92 419.877 93C421.077 94.9 422.994 95.9333 425.627 96.1C428.26 96.2667 431.177 96.1333 434.377 95.7V107ZM395.977 63.5V53H434.377V63.5H395.977ZM451.846 131L462.246 102.4L462.446 110.8L438.946 53H453.046L468.846 93.9H465.646L481.346 53H494.946L464.446 131H451.846ZM538.777 107V81.5C538.777 80.2667 538.71 78.7 538.577 76.8C538.444 74.8667 538.027 72.9333 537.327 71C536.627 69.0667 535.477 67.45 533.877 66.15C532.31 64.85 530.077 64.2 527.177 64.2C526.01 64.2 524.76 64.3833 523.427 64.75C522.094 65.1167 520.844 65.8333 519.677 66.9C518.51 67.9333 517.544 69.4667 516.777 71.5C516.044 73.5333 515.677 76.2333 515.677 79.6L507.877 75.9C507.877 71.6333 508.744 67.6333 510.477 63.9C512.21 60.1667 514.81 57.15 518.277 54.85C521.777 52.55 526.177 51.4 531.477 51.4C535.71 51.4 539.16 52.1167 541.827 53.55C544.494 54.9833 546.56 56.8 548.027 59C549.527 61.2 550.594 63.5 551.227 65.9C551.86 68.2667 552.244 70.4333 552.377 72.4C552.51 74.3667 552.577 75.8 552.577 76.7V107H538.777ZM501.877 107V53H513.977V70.9H515.677V107H501.877ZM559.551 107L578.851 79.7L559.951 53H575.951L586.751 69L597.351 53H613.351L594.451 79.7L613.851 107H597.851L586.751 90.4L575.551 107H559.551Z" fill="#ffffff"/>
<defs>
<linearGradient id="paint0_linear_10_2_white" x1="0.0375977" y1="107.099" x2="159.032" y2="107.099" gradientUnits="userSpaceOnUse">
<stop offset="0.576923" stop-color="#2F80ED"/>
<stop offset="0.860577" stop-color="#2BB5A8"/>
<stop offset="1" stop-color="#27AE60"/>
</linearGradient>
</defs>
</svg>
